<svg xmlns="http://www.w3.org/2000/svg" viewBox="0 0 1200 630" width="1200" height="630">
  <defs>
    <linearGradient id="bg" x1="0" y1="0" x2="1" y2="1">
      <stop offset="0" stop-color="#0b0f1a" />
      <stop offset="1" stop-color="#111a2e" />
    </linearGradient>
    <radialGradient id="glow" cx="85%" cy="0%" r="70%">
      <stop offset="0" stop-color="#6366f1" stop-opacity="0.35" />
      <stop offset="1" stop-color="#6366f1" stop-opacity="0" />
    </radialGradient>
    <linearGradient id="logo" x1="0" y1="0" x2="1" y2="1">
      <stop offset="0" stop-color="#6366f1" />
      <stop offset="1" stop-color="#8b5cf6" />
    </linearGradient>
  </defs>
  <rect width="1200" height="630" fill="url(#bg)" />
  <rect width="1200" height="630" fill="url(#glow)" />

  <g transform="translate(96 96)">
    <rect width="96" height="96" rx="22" fill="url(#logo)" />
    <g transform="translate(48 48) scale(1.4) translate(-32 -32)">
      <path
        d="M43 18.5a8.5 8.5 0 0 1-11 11L20.5 41l-3 3 3 3L32 35.5a8.5 8.5 0 0 1 11-11l-5 5-3.5-.9-.9-3.5 5-5z"
        fill="#fff"
      />
    </g>
  </g>

  <text x="96" y="300" font-family="Inter, system-ui, sans-serif" font-size="92" font-weight="700" fill="#e8edf6">Dev Toolbox</text>
  <text x="96" y="372" font-family="Inter, system-ui, sans-serif" font-size="40" font-weight="500" fill="#8b97ad">Geliştiriciler için çevrimdışı araç kutusu</text>

  <g font-family="monospace" font-size="23" fill="#aab4c8">
    <rect x="96" y="430" width="320" height="56" rx="12" fill="#0f1623" stroke="#222d42" />
    <text x="120" y="466">JSON · JWT · Base64</text>
    <rect x="436" y="430" width="320" height="56" rx="12" fill="#0f1623" stroke="#222d42" />
    <text x="460" y="466">hash · regex · cron</text>
    <rect x="776" y="430" width="320" height="56" rx="12" fill="#0f1623" stroke="#222d42" />
    <text x="800" y="466">34 araç · ücretsiz</text>
  </g>

  <text x="96" y="560" font-family="Inter, system-ui, sans-serif" font-size="30" font-weight="600" fill="#818cf8">🔒 Veriniz tarayıcıdan çıkmaz · Açık kaynak (MIT)</text>
</svg>
